<?xml version="1.0" encoding="utf-8"?>
<!-- Generator: Adobe Illustrator 21.0.2, SVG Export Plug-In . SVG Version: 6.00 Build 0)  -->
<svg version="1.1" id="Layer_1" xmlns="http://www.w3.org/2000/svg" xmlns:xlink="http://www.w3.org/1999/xlink" x="0px" y="0px"
	 viewBox="0 0 512 512" style="enable-background:new 0 0 512 512;" xml:space="preserve">
<style type="text/css">
	.st0{fill:#FF7C00;}
	.st1{fill:#261300;}
	.st2{display:none;opacity:0.15;fill:#FF7C00;enable-background:new    ;}
</style>
<path class="st0" d="M93.9,12.8h324.3c51.7,0,93.9,42.1,93.9,93.9v311.5c0,51.7-42.1,93.9-93.9,93.9H93.9C42.1,512,0,469.9,0,418.1
	V106.7C0,54.9,42.1,12.8,93.9,12.8"/>
<path class="st1" d="M98.1,34.1h315.7c42.7,0,76.8,34.1,76.8,76.8v302.9c0,42.7-34.1,76.8-76.8,76.8H98.1
	c-42.7,0-76.8-34.1-76.8-76.8V110.9C21.3,68.3,55.5,34.1,98.1,34.1"/>
<path class="st0" d="M237.9,152.3c-0.8-1.7-0.8-1.7-2.5-1.7h-43.1c-0.8,0-1.7,0-1.7,1.7c0.2,5.9-0.3,11.7-1.7,17.4L130,376.2
	c-0.8,2.5,0,3.3,1.7,3.3h30.7c2.5,0,3.3-0.8,3.3-2.5l16.6-62.2h65.5l17.4,62.2c0.8,1.7,1.7,1.7,3.3,1.7h34c1.7,0,1.7-0.8,1.7-2.5
	L237.9,152.3z M191.4,281.6c8.5-32.3,19.9-73.8,24.1-97.9c5,24.9,19.1,74.6,24.9,97.9H191.4z M333.2,166.4
	c0-11.9,9.7-21.6,21.6-21.6s21.6,9.7,21.6,21.6c0,0,0,0,0,0c0.9,11-7.3,20.7-18.3,21.6c-1.1,0.1-2.2,0.1-3.2,0
	C342.4,187.1,333.2,179.6,333.2,166.4z M335.7,213.6c-0.2-1.2,0.6-2.3,1.8-2.5c0.2,0,0.5,0,0.7,0h32.3c1.2-0.2,2.3,0.6,2.5,1.8
	c0,0.2,0,0.5,0,0.7V377c0,1.7,0,2.5-2.5,2.5h-32.3c-1.2,0.2-2.3-0.6-2.5-1.8c0-0.2,0-0.5,0-0.7L335.7,213.6L335.7,213.6z"/>
<path class="st2" d="M237.9,152.3c-0.8-1.7-0.8-1.7-2.5-1.7h-43.1c-0.8,0-1.7,0-1.7,1.7c0.2,5.9-0.3,11.7-1.7,17.4L130,376.2
	c-0.8,2.5,0,3.3,1.7,3.3h30.7c2.5,0,3.3-0.8,3.3-2.5l16.6-62.2h65.5l17.4,62.2c0.8,1.7,1.7,1.7,3.3,1.7h34c1.7,0,1.7-0.8,1.7-2.5
	L237.9,152.3z M191.4,281.6c8.5-32.3,19.9-73.8,24.1-97.9c5,24.9,19.1,74.6,24.9,97.9H191.4z M333.2,166.4
	c0-11.9,9.7-21.6,21.6-21.6s21.6,9.7,21.6,21.6c0,0,0,0,0,0c0.9,11-7.3,20.7-18.3,21.6c-1.1,0.1-2.2,0.1-3.2,0
	C342.4,187.1,333.2,179.6,333.2,166.4z M335.7,213.6c-0.2-1.2,0.6-2.3,1.8-2.5c0.2,0,0.5,0,0.7,0h32.3c1.2-0.2,2.3,0.6,2.5,1.8
	c0,0.2,0,0.5,0,0.7V377c0,1.7,0,2.5-2.5,2.5h-32.3c-1.2,0.2-2.3-0.6-2.5-1.8c0-0.2,0-0.5,0-0.7L335.7,213.6L335.7,213.6z"/>
</svg>
