<?xml version="1.0" encoding="utf-8"?>
<!-- Generator: Adobe Illustrator 21.0.2, SVG Export Plug-In . SVG Version: 6.00 Build 0)  -->
<svg version="1.1" id="Layer_1" xmlns="http://www.w3.org/2000/svg" xmlns:xlink="http://www.w3.org/1999/xlink" x="0px" y="0px"
	 viewBox="0 0 512 512" style="enable-background:new 0 0 512 512;" xml:space="preserve">
<style type="text/css">
	.st0{fill:#00C8FF;}
	.st1{fill:#001D26;}
	.st2{display:none;opacity:0.15;fill:#00C8FF;enable-background:new    ;}
</style>
<path class="st0" d="M93.9,12.8h326c50.7,0,92.1,41.5,92.1,92.1v315c0,50.7-41.5,92.1-92.1,92.1H92.1C41.5,512,0,470.5,0,419.9
	V106.7C0,54.9,42.1,12.8,93.9,12.8"/>
<path class="st1" d="M98.1,34.1h317.5c41.5,0,75.1,33.6,75.1,75.1v306.4c0,41.5-33.6,75.1-75.1,75.1H96.4
	c-41.5,0-75.1-33.6-75.1-75.1V110.9C21.3,68.3,55.5,34.1,98.1,34.1"/>
<path class="st0" d="M341.1,233.4c-16.8,0-21.9,8.4-21.9,15.1c0,6.7,4.2,12.6,26.3,24.4c32.8,15.8,43.7,31.1,43.7,53.8
	c0,33.6-25.2,52.1-60.5,52.1c-15.1,0.7-30.2-2.5-43.7-9.2c-1.7-0.8-1.7-1.7-1.7-3.4v-31.1c0-1.7,0.8-2.5,2.5-1.7
	c12.4,8.3,27.1,12.7,42,12.6c16.8,0,23.5-6.7,23.5-15.8c0-7.6-5.3-14.3-26.3-25.2c-29.4-14.3-42-28.6-42-53
	c0-26.9,21-49.6,57.8-49.6c12.9-0.5,25.7,1.5,37.8,5.9c1.6,0.6,2.4,2.3,1.8,3.9c0,0.1-0.1,0.2-0.1,0.3v28.6c0,1.7-0.8,2.5-3.4,1.7
	c-11-6-23.2-9.3-35.7-9.5L341.1,233.4L341.1,233.4z M263.4,216.5c0,53.8-38.7,76.5-86.6,76.5H161v80.7c0.2,1.2-0.6,2.3-1.8,2.5
	c-0.2,0-0.5,0-0.7,0h-33.2c-1.2,0.2-2.3-0.6-2.5-1.8c0-0.2,0-0.5,0-0.7l0.8-227c0-1.7,3.4-2.5,5.3-2.5c13.5-0.8,33.6-0.8,53.8-0.8
	C240.5,143.4,263.4,175.3,263.4,216.5z M225.1,216.5c0-26.9-16.8-40.4-44.6-40.4c-6.7-0.2-13.5,0-20.2,0.8v81.6h16.8
	C201.8,258.6,225.1,250.2,225.1,216.5z"/>
<path class="st2" d="M341.1,233.4c-16.8,0-21.9,8.4-21.9,15.1c0,6.7,4.2,12.6,26.3,24.4c32.8,15.8,43.7,31.1,43.7,53.8
	c0,33.6-25.2,52.1-60.5,52.1c-15.1,0.7-30.2-2.5-43.7-9.2c-1.7-0.8-1.7-1.7-1.7-3.4v-31.1c0-1.7,0.8-2.5,2.5-1.7
	c12.4,8.3,27.1,12.7,42,12.6c16.8,0,23.5-6.7,23.5-15.8c0-7.6-5.3-14.3-26.3-25.2c-29.4-14.3-42-28.6-42-53
	c0-26.9,21-49.6,57.8-49.6c12.9-0.5,25.7,1.5,37.8,5.9c1.6,0.6,2.4,2.3,1.8,3.9c0,0.1-0.1,0.2-0.1,0.3v28.6c0,1.7-0.8,2.5-3.4,1.7
	c-11-6-23.2-9.3-35.7-9.5L341.1,233.4L341.1,233.4z M263.4,216.5c0,53.8-38.7,76.5-86.6,76.5H161v80.7c0.2,1.2-0.6,2.3-1.8,2.5
	c-0.2,0-0.5,0-0.7,0h-33.2c-1.2,0.2-2.3-0.6-2.5-1.8c0-0.2,0-0.5,0-0.7l0.8-227c0-1.7,3.4-2.5,5.3-2.5c13.5-0.8,33.6-0.8,53.8-0.8
	C240.5,143.4,263.4,175.3,263.4,216.5z M225.1,216.5c0-26.9-16.8-40.4-44.6-40.4c-6.7-0.2-13.5,0-20.2,0.8v81.6h16.8
	C201.8,258.6,225.1,250.2,225.1,216.5z"/>
</svg>
