<?xml version="1.0" encoding="utf-8"?>
<!-- Generator: Adobe Illustrator 21.0.2, SVG Export Plug-In . SVG Version: 6.00 Build 0)  -->
<svg version="1.1" id="Layer_1" xmlns="http://www.w3.org/2000/svg" xmlns:xlink="http://www.w3.org/1999/xlink" x="0px" y="0px"
	 viewBox="0 0 256 256" style="enable-background:new 0 0 256 256;" xml:space="preserve">
<style type="text/css">
	.st0{fill:#FFFFFF;}
	.st1{fill:#0065A9;}
	.st2{fill:#007ACC;}
	.st3{fill:#1F9CF0;}
	.st4{opacity:0.25;}
	.st5{fill:url(#SVGID_1_);}
</style>
<path class="st0" d="M180.3,251.2c3.9,1.5,8.4,1.4,12.4-0.5l51.4-24.7c5.4-2.6,8.8-8.1,8.8-14.1V44.1c0-6-3.4-11.5-8.8-14.1
	L192.7,5.3c-5.2-2.5-11.3-1.9-15.9,1.4c-0.7,0.5-1.3,1-1.9,1.6L76.5,98.1L33.6,65.6c-4-3-9.6-2.8-13.3,0.6L6.6,78.7
	C2,82.8,2,89.9,6.6,94.1L43.7,128L6.6,161.9c-4.5,4.1-4.5,11.3,0,15.4l13.8,12.5c3.7,3.4,9.3,3.6,13.3,0.6l42.9-32.6l98.5,89.8
	C176.5,249.3,178.4,250.4,180.3,251.2z M190.6,71.3L115.9,128l74.7,56.7L190.6,71.3L190.6,71.3z"/>
<g>
	<path class="st1" d="M244.1,30.1L192.7,5.3c-6-2.9-13.1-1.7-17.8,3L6.4,161.9c-4.5,4.1-4.5,11.3,0,15.4l13.8,12.5
		c3.7,3.4,9.3,3.6,13.3,0.6l202.9-154c6.8-5.2,16.6-0.3,16.6,8.2v-0.6C253,38.1,249.6,32.7,244.1,30.1z"/>
	<g>
		<path class="st2" d="M244.1,225.9l-51.5,24.8c-6,2.9-13.1,1.7-17.8-3L6.4,94.1c-4.5-4.1-4.5-11.3,0-15.4l13.8-12.5
			c3.7-3.4,9.3-3.6,13.3-0.6l202.9,153.9c6.8,5.2,16.6,0.3,16.6-8.2v0.6C253,217.9,249.6,223.3,244.1,225.9z"/>
	</g>
	<g>
		<path class="st3" d="M192.7,250.7c-6,2.9-13.1,1.7-17.8-3c5.8,5.8,15.6,1.7,15.6-6.5V14.8c0-8.1-9.9-12.2-15.6-6.5
			c4.7-4.7,11.8-5.9,17.8-3L244.1,30c5.4,2.6,8.9,8.1,8.9,14.1v167.8c0,6-3.4,11.5-8.9,14.1L192.7,250.7z"/>
	</g>
	<g class="st4">
		
			<linearGradient id="SVGID_1_" gradientUnits="userSpaceOnUse" x1="127.9219" y1="1665.7313" x2="127.9219" y2="1914.2728" gradientTransform="matrix(1 0 0 1 0 -1662)">
			<stop  offset="0" style="stop-color:#FFFFFF"/>
			<stop  offset="1" style="stop-color:#FFFFFF;stop-opacity:0"/>
		</linearGradient>
		<path class="st5" d="M180.2,251.2c3.9,1.5,8.4,1.4,12.4-0.5L244,226c5.4-2.6,8.8-8.1,8.8-14.1V44.1c0-6-3.4-11.5-8.8-14.1
			L192.6,5.3c-5.2-2.5-11.3-1.9-15.9,1.4c-0.7,0.5-1.3,1-1.9,1.6L76.3,98.1L33.4,65.6c-4-3-9.6-2.8-13.3,0.6L6.4,78.7
			c-4.5,4.1-4.5,11.3,0,15.4L43.6,128L6.4,161.9c-4.5,4.1-4.5,11.3,0,15.4l13.8,12.5c3.7,3.4,9.3,3.6,13.3,0.6l42.9-32.6l98.5,89.8
			C176.4,249.3,178.2,250.4,180.2,251.2z M190.4,71.3L115.7,128l74.7,56.7V71.3z"/>
	</g>
</g>
</svg>
