<?xml version="1.0" encoding="utf-8"?>
<!-- Generator: Adobe Illustrator 21.0.2, SVG Export Plug-In . SVG Version: 6.00 Build 0)  -->
<svg version="1.1" id="Layer_1" xmlns="http://www.w3.org/2000/svg" xmlns:xlink="http://www.w3.org/1999/xlink" x="0px" y="0px"
	 viewBox="0 0 500 500" style="enable-background:new 0 0 500 500;" xml:space="preserve">
<style type="text/css">
	.st0{fill:url(#SVGID_1_);}
	.st1{display:none;opacity:0.7;fill:#FFFFFF;enable-background:new    ;}
	.st2{display:none;}
	.st3{display:inline;}
	
		.st4{fill:none;stroke:#18ADFE;stroke-width:1.1031;stroke-linecap:round;stroke-linejoin:round;stroke-miterlimit:10;stroke-dasharray:4.4124;}
	.st5{fill:url(#SVGID_2_);}
	.st6{display:none;opacity:0.5;fill:#FFFFFF;enable-background:new    ;}
	.st7{fill:#FFFFFF;stroke:#263238;stroke-width:1.1031;stroke-linecap:round;stroke-linejoin:round;stroke-miterlimit:10;}
	.st8{fill:#263238;}
	.st9{opacity:0.2;fill:#FFFFFF;enable-background:new    ;}
	.st10{fill:url(#SVGID_3_);stroke:#263238;stroke-width:1.1031;stroke-miterlimit:10;}
	.st11{fill:none;stroke:#263238;stroke-width:1.1031;stroke-miterlimit:10;}
	.st12{fill:url(#SVGID_4_);stroke:#263238;stroke-width:1.1031;stroke-miterlimit:10;}
	.st13{display:none;opacity:0.2;enable-background:new    ;}
	.st14{fill:url(#SVGID_5_);stroke:#263238;stroke-width:1.1031;stroke-miterlimit:10;}
	.st15{fill:#92E3A9;}
	.st16{fill:#FFFFFF;stroke:#222221;stroke-width:1.1031;stroke-miterlimit:10;}
	.st17{fill:url(#SVGID_6_);stroke:#263238;stroke-width:1.1031;stroke-miterlimit:10;}
	
		.st18{fill:none;stroke:#263238;stroke-width:1.1031;stroke-linecap:round;stroke-linejoin:round;stroke-miterlimit:10;stroke-dasharray:4.4124;}
	.st19{fill:#FF4D65;}
	.st20{fill:#FFFFFF;}
	.st21{fill:none;stroke:#263238;stroke-width:1.1031;stroke-linecap:round;stroke-linejoin:round;stroke-miterlimit:10;}
	.st22{fill:#E8BEAC;}
	.st23{opacity:0.2;enable-background:new    ;}
	.st24{fill:none;stroke:#263238;stroke-width:2.2062;stroke-linecap:round;stroke-linejoin:round;stroke-miterlimit:10;}
	
		.st25{opacity:0.2;fill:none;stroke:#FFFFFF;stroke-width:1.1031;stroke-linecap:round;stroke-linejoin:round;stroke-miterlimit:10;enable-background:new    ;}
	.st26{fill:none;stroke:#FFFFFF;stroke-width:1.1031;stroke-linecap:round;stroke-linejoin:round;stroke-miterlimit:10;}
</style>
<g id="Background_Simple">
	<g>
		
			<linearGradient id="SVGID_1_" gradientUnits="userSpaceOnUse" x1="25" y1="287.7158" x2="475" y2="287.7158" gradientTransform="matrix(1 0 0 -1 0 500)">
			<stop  offset="0" style="stop-color:#A7DF62"/>
			<stop  offset="1" style="stop-color:#92E3A9"/>
		</linearGradient>
		<path class="st0" d="M461.7,200.6c-49.9-85.6-185.5-55-213.2-96.7c-14.1-21.3-30-46-53-58.8c-21.9-12.2-47.4-16.6-69.5-15
			c-79.1,5.8-112.6,76.6-97.5,154.4c20.2,103.6,112.1,209.6,221.4,210.3c57.1,0.4,111.7-20.1,154.5-48.9c0.3-0.2,0.6-0.4,0.9-0.6
			C448.1,316.2,499.8,265.8,461.7,200.6z"/>
		<path class="st1" d="M461.7,200.6c-49.9-85.6-185.5-55-213.2-96.7c-14.1-21.3-30-46-53-58.8c-21.9-12.2-47.4-16.6-69.5-15
			c-79.1,5.8-112.6,76.6-97.5,154.4c20.2,103.6,112.1,209.6,221.4,210.3c57.1,0.4,111.7-20.1,154.5-48.9c0.3-0.2,0.6-0.4,0.9-0.6
			C448.1,316.2,499.8,265.8,461.7,200.6z"/>
	</g>
</g>
<g id="Lines" class="st2">
	<g class="st3">
		<path class="st4" d="M78.2,215.2h-5.4c-12.1,0-21.9,9.8-21.9,21.9v120.3c0,12.1,9.8,21.9,21.9,21.9h74.4
			c12.1,0,21.9-9.8,21.9-21.9l0,0"/>
		<path class="st4" d="M163,101.6V77.9c0-7.4,6-13.4,13.4-13.4h96.7c7.4,0,13.4,6,13.4,13.4l0,0"/>
	</g>
</g>
<g id="Shadow">
	<g>
		
			<linearGradient id="SVGID_2_" gradientUnits="userSpaceOnUse" x1="53.6683" y1="57.244" x2="446.2307" y2="57.244" gradientTransform="matrix(1 0 0 -1 0 500)">
			<stop  offset="0" style="stop-color:#A7DF62"/>
			<stop  offset="1" style="stop-color:#92E3A9"/>
		</linearGradient>
		<ellipse class="st5" cx="249.9" cy="442.8" rx="196.3" ry="27.5"/>
		<ellipse class="st6" cx="249.9" cy="442.8" rx="196.3" ry="27.5"/>
	</g>
</g>
<g id="Window">
	<g>
		<path class="st7" d="M435,123.1v184.6c0,12.6-10.1,22.8-22.8,22.8H87.7c-12.6,0-22.8-10.1-22.8-22.8V123.1c0-0.5,0-1,0.1-1.6
			c0.8-11.8,10.7-21.1,22.7-21.1h324.6c12,0,21.8,9.3,22.7,21.1C435,122,435,122.6,435,123.1z"/>
		<path class="st8" d="M403.8,321.8H97.3c-11.8,0-21.3-9.5-21.3-21.3V130h349.1v170.5C425.1,312.3,415.6,321.8,403.8,321.8z"/>
		<path class="st9" d="M425.1,130v170.5c0,11.8-9.4,21.3-21.1,21.3H97c-11.7,0-21.1-9.5-21.1-21.3V130H425.1z"/>
		
			<linearGradient id="SVGID_3_" gradientUnits="userSpaceOnUse" x1="64.9429" y1="389.0263" x2="434.956" y2="389.0263" gradientTransform="matrix(1 0 0 -1 0 500)">
			<stop  offset="0" style="stop-color:#18ADFE"/>
			<stop  offset="1" style="stop-color:#0062E1"/>
		</linearGradient>
		<path class="st10" d="M435,121.5h-370c0.8-11.8,10.7-21.1,22.7-21.1h324.6C424.3,100.3,434.1,109.6,435,121.5z"/>
		<circle class="st8" cx="106.5" cy="110.9" r="4"/>
		<circle class="st8" cx="123.5" cy="110.9" r="4"/>
		<circle class="st8" cx="140.5" cy="110.9" r="4"/>
		<path class="st11" d="M425.1,130v170.5c0,11.8-9.5,21.3-21.3,21.3H97.3c-10.4,0-19-7.4-20.9-17.2l0,0l0,0
			c-0.3-1.3-0.4-2.7-0.4-4.1V130H425.1z"/>
		<path class="st8" d="M424.7,156.4c-1.5-0.8-3.1-1.5-4.7-1.9l-1.9-8.6h-8.1l-1.9,8.6c-1.6,0.4-3.3,1.1-4.7,1.9l-7.4-4.7l-5.7,5.7
			l4.6,7.4c-0.8,1.5-1.5,3.1-1.9,4.7l-8.6,1.9v8.1l8.6,1.9c0.4,1.6,1.1,3.3,1.9,4.8l-4.7,7.4l5.7,5.7l7.4-4.7
			c1.5,0.8,3.1,1.5,4.7,1.9l1.9,8.5h8.1l1.9-8.5c1.6-0.5,3.3-1.1,4.7-1.9l0.4,0.2v-38.7L424.7,156.4z M414,186.1
			c-5.8,0-10.6-4.7-10.6-10.6c0-5.8,4.7-10.6,10.6-10.6c5.8,0,10.6,4.7,10.6,10.6C424.6,181.4,419.9,186.1,414,186.1z"/>
		<path class="st8" d="M278.1,164.7v-17.1l-18-4c-1-3.5-2.4-6.9-4.1-10l2.2-3.5H173l2.2,3.4c-1.7,3.2-3.2,6.6-4.1,10l-18,4v17.1
			l18,4c0.9,3.5,2.4,6.9,4.1,10l-9.9,15.6l12.1,12.1l15.6-9.9c3.2,1.7,6.6,3.2,10,4.1l4,18H224l4-18c3.5-1,6.9-2.4,9.9-4.1l15.6,9.9
			l12.1-12.1l-9.8-15.6c1.7-3.2,3.2-6.6,4.1-10L278.1,164.7z M215.5,178.2c-12.2,0-22.1-9.9-22.1-22.1s9.9-22.1,22.1-22.1
			c12.2,0,22.1,9.9,22.1,22.1S227.8,178.2,215.5,178.2z"/>
		<path class="st8" d="M164.3,282.5l0.7-13.6l-14.1-4c-0.6-2.8-1.6-5.5-2.9-8.1l8.5-12l-9.1-10.1l-12.8,7.2c-2.5-1.5-5-2.8-7.8-3.7
			l-2.5-14.5l-13.6-0.7l-3.9,14.1c-2.8,0.6-5.5,1.6-8.1,2.9l-12-8.5l-10.1,9.1l7.3,12.8c-1.5,2.5-2.8,5-3.7,7.8l-4.1,0.7v18.4l3,0.8
			c0.6,2.8,1.6,5.5,2.9,8.1l-5.8,8.2l0.4,7.1l0,0l0,0l6,6.8l12.8-7.2c2.5,1.5,5,2.9,7.8,3.8l2.4,13.9l0,0l0.1,0.6l13.6,0.7l0.4-1.3
			l0,0l3.6-12.8c2.9-0.6,5.5-1.6,8.1-2.9l11.9,8.5l10.1-9.1l-7.2-12.8c1.5-2.5,2.8-5,3.7-7.8L164.3,282.5z M128.1,261.2
			c-6.6-7.3-17.6-7.8-24.9-1.3c-7.3,6.6-7.8,17.6-1.3,24.9c6.6,7.3,17.6,7.8,24.9,1.3C134,279.6,134.6,268.4,128.1,261.2z"/>
		<path class="st8" d="M273.1,262.2c0.5-2.2,0.8-4.3,0.8-6.5l9.7-5.1l-2.7-9.9l-11.1,0.5c-1.1-1.8-2.5-3.6-4-5.1l3.3-10.6l-8.9-5.1
			l-7.5,8.1c-2-0.5-4.3-0.8-6.5-0.8l-5.1-9.8l-9.9,2.7l0.5,11.1c-1.8,1.1-3.6,2.5-5.1,4l-10.6-3.3l-5.1,8.9l8.2,7.5
			c-0.5,2.2-0.8,4.3-0.8,6.5l-9.8,5.1l2.7,9.9l11.1-0.5c1.1,1.8,2.5,3.6,4,5.1l-3.3,10.6l8.9,5.1l7.4-8.1c2.2,0.5,4.3,0.8,6.5,0.8
			l5.1,9.8l9.9-2.7l-0.4-9.4l-0.1-1.6c1.8-1.1,3.6-2.5,5.2-4l10.6,3.3l4.4-7.6l0.7-1.3L273.1,262.2z M249.6,268.2
			c-7.1,1.9-14.3-2.3-16.3-9.3s2.3-14.3,9.3-16.3c7.1-1.9,14.3,2.3,16.3,9.3C260.9,259,256.7,266.3,249.6,268.2z"/>
		<path class="st8" d="M386.6,279.6l2.3-13.6l-13.8-5.5c-0.3-2.9-1-5.7-1.9-8.5l9.9-11.1l-8-11.3l-13.7,5.8
			c-2.3-1.8-4.7-3.4-7.4-4.6l-0.8-14.9l-13.6-2.3l-5.5,13.7c-2.9,0.3-5.7,1-8.5,1.9l-11.1-9.9l-11.3,8l5.8,13.6
			c-1.6,2-3,4.2-4.1,6.5c-0.2,0.3-0.3,0.6-0.5,0.9l-14.9,0.8l-2.3,13.6l2.3,0.9l11.6,4.6c0.3,2.9,0.9,5.7,1.9,8.5L293,288l8,11.3
			l13.7-5.8c2.3,1.8,4.7,3.4,7.4,4.6l0.8,14.8l13.6,2.3l5.5-13.6c2.9-0.3,5.7-1,8.5-1.9l11.1,9.9l11.3-8.1l-5.8-13.7
			c1.8-2.3,3.4-4.8,4.7-7.4L386.6,279.6z M348.3,279c-8,5.7-19.2,3.9-24.9-4.1c-5.7-8-3.9-19.2,4.1-24.9c8-5.7,19.2-3.9,24.9,4.1
			C358.2,262.2,356.3,273.2,348.3,279z"/>
	</g>
</g>
<g id="Graphics">
	<g>
		<g>
			
				<linearGradient id="SVGID_4_" gradientUnits="userSpaceOnUse" x1="81.2399" y1="233.6409" x2="215.3056" y2="233.6409" gradientTransform="matrix(1 0 0 -1 0 500)">
				<stop  offset="0" style="stop-color:#18ADFE"/>
				<stop  offset="1" style="stop-color:#0062E1"/>
			</linearGradient>
			<path class="st12" d="M201.9,354H94.7c-7.4,0-13.4-6-13.4-13.4V192.2c0-7.4,6-13.4,13.4-13.4h107.2c7.4,0,13.4,6,13.4,13.4v148.4
				C215.3,347.9,209.3,354,201.9,354z"/>
			<path class="st13" d="M201.9,354H94.7c-7.4,0-13.4-6-13.4-13.4V192.2c0-7.4,6-13.4,13.4-13.4h107.2c7.4,0,13.4,6,13.4,13.4v148.4
				C215.3,347.9,209.3,354,201.9,354z"/>
			<g>
				<path class="st7" d="M227.8,205.4v148.4c0,7.4-6,13.4-13.4,13.4H107.2c-7.4,0-13.4-6-13.4-13.4V205.4c0-7.4,6-13.4,13.4-13.4
					h107.2C221.8,191.9,227.8,198,227.8,205.4z"/>
				
					<linearGradient id="SVGID_5_" gradientUnits="userSpaceOnUse" x1="93.7445" y1="297.3426" x2="227.8102" y2="297.3426" gradientTransform="matrix(1 0 0 -1 0 500)">
					<stop  offset="0" style="stop-color:#18ADFE"/>
					<stop  offset="1" style="stop-color:#0062E1"/>
				</linearGradient>
				<path class="st14" d="M227.8,205.4v8H93.7v-8c0-7.4,6-13.4,13.4-13.4h107.2C221.8,191.9,227.8,198,227.8,205.4z"/>
				<rect x="106.4" y="222.5" class="st15" width="33" height="5.5"/>
				<rect x="106.4" y="272.1" class="st15" width="33" height="5.5"/>
				<rect x="106.4" y="317.1" class="st15" width="33" height="5.5"/>
				<g>
					<rect x="106.4" y="236.2" class="st8" width="93.7" height="4.1"/>
					<rect x="106.4" y="244" class="st8" width="76.8" height="4"/>
					<rect x="106.4" y="251.6" class="st8" width="86.8" height="4"/>
					<rect x="106.4" y="259.3" class="st8" width="86.8" height="4"/>
				</g>
				<g>
					<rect x="106.4" y="281.2" class="st8" width="93.7" height="4.1"/>
					<rect x="106.4" y="289" class="st8" width="76.8" height="4"/>
					<rect x="106.4" y="296.6" class="st8" width="86.8" height="4"/>
				</g>
				<g>
					<rect x="106.4" y="330.6" class="st8" width="93.7" height="4.1"/>
					<rect x="106.4" y="338.3" class="st8" width="76.8" height="4"/>
					<rect x="106.4" y="346" class="st8" width="86.8" height="4"/>
				</g>
			</g>
		</g>
		<g>
			<path class="st16" d="M378.9,89v60c0,8.8-7.2,16-16,16H224.6c-8.8,0-16-7.2-16-16V89c0-8.8,7.2-16,16-16h138.2
				C371.7,73.1,378.9,80.2,378.9,89z"/>
			
				<linearGradient id="SVGID_6_" gradientUnits="userSpaceOnUse" x1="208.6433" y1="418.2887" x2="378.8903" y2="418.2887" gradientTransform="matrix(1 0 0 -1 0 500)">
				<stop  offset="0" style="stop-color:#18ADFE"/>
				<stop  offset="1" style="stop-color:#0062E1"/>
			</linearGradient>
			<path class="st17" d="M378.9,89v1.3H208.6V89c0-8.8,7.2-16,16-16h138.2C371.7,73.1,378.9,80.2,378.9,89z"/>
			<ellipse transform="matrix(0.7071 -0.7071 0.7071 0.7071 9.3566 188.222)" class="st8" cx="231.9" cy="82.8" rx="2.5" ry="2.5"/>
			
				<ellipse transform="matrix(0.7071 -0.7071 0.7071 0.7071 12.6824 196.2732)" class="st8" cx="243.3" cy="82.8" rx="2.5" ry="2.5"/>
			
				<ellipse transform="matrix(0.7071 -0.7071 0.7071 0.7071 16.0765 204.3589)" class="st8" cx="254.7" cy="82.8" rx="2.5" ry="2.5"/>
			<rect x="219.5" y="101.4" class="st18" width="55.7" height="48.1"/>
			<g>
				<rect x="283.8" y="101.4" class="st8" width="64.1" height="3.4"/>
				<rect x="283.8" y="108.4" class="st8" width="49.1" height="3.4"/>
				<rect x="283.8" y="115.4" class="st8" width="73.2" height="3.4"/>
				<rect x="283.8" y="122.2" class="st8" width="62.3" height="3.4"/>
			</g>
		</g>
	</g>
</g>
<g id="Character">
	<g>
		<path class="st19" d="M298,437.7c0,0-29.7,8.5-33.8,10c-3.8,1.3-14,4.9-21.7,3.8c-0.7-0.1-1.5-0.3-2.2-0.5
			c-7.8-2.4-11.3-4.5-12.3-9.3c-1-4.9,2.9-8.5,6.6-10.8c3.7-2.4,24-4.7,24-4.7l4.9,1.4l0,0L298,437.7z"/>
		<path class="st20" d="M242.5,451.5c-0.7-0.1-1.5-0.3-2.2-0.5c-7.8-2.4-11.3-4.5-12.3-9.3c-1-4.9,2.9-8.5,6.6-10.8
			c3.7-2.4,24-4.7,24-4.7l4.9,1.4c-4.4,2-20.9,3.2-24.5,5.2s-5.3,5.9-3.2,11.3C236.8,446.9,239.8,449.5,242.5,451.5z"/>
		<path class="st21" d="M293.5,438.9c0,0-22.3,5.7-31.2,9.5c-8.8,3.7-25.7,5.3-31.8-2.4c-6-7.6-0.7-14.2,5.3-15.7
			c6-1.4,18.1-3.8,24.8-2.9"/>
		<path class="st21" d="M242.9,451.1c0,0-11.4-6.3-7.6-15c2.8-6.5,17.9-5,25.4-8.6"/>
		<path class="st19" d="M388.5,452.9c-0.3,3.1-1.3,5.9-4.4,7.8c-2,1.2-4.9,1.9-9.1,1.8c-10.5-0.1-30-7.6-30-7.6l-18.3-10.1l9.5-15.1
			l2.6-4.1l6.8,1.5c0,0,5.5,3.2,11.2,5.6c5.6,2.6,19.3,3.1,24.1,7C385.6,443.6,389,447.8,388.5,452.9z"/>
		<path class="st20" d="M388.5,452.9c-0.3,3.1-1.3,5.9-4.4,7.8c0.6-2.4,1-5.6-0.5-9.1c-2-4.6-8.7-8.6-17.5-9.3
			c-8.7-0.7-15.5-4.8-19-6.7c-2.8-1.4-8.5-4.5-11-5.8l2.6-4.1l6.8,1.5c0,0,5.5,3.2,11.2,5.6c5.6,2.6,19.3,3.1,24.1,7
			C385.6,443.6,389,447.8,388.5,452.9z"/>
		<path class="st21" d="M330.6,447.7c13,7.5,28,12.9,42.9,14.7c3.4,0.4,7.2,0.4,9.4-2c1.2-1.4,1.7-3.4,1.5-5.2
			c-0.4-4.7-4.4-8.4-8.7-10.4c-4.3-1.8-9.1-2.4-13.7-3.4c-4.6-1-9-2.7-13.2-4.8c-3.3-1.7-6.6-3.8-10.1-4.6c-3.7-0.8-8,0.2-9.9,3.4"
			/>
		<path class="st21" d="M381.8,461.5c3.4-1.7,6.1-4.9,6.7-8.7c0.6-4.4-1.8-8.9-5.4-11.7c-3.6-2.8-8-4-12.4-4.9
			c-4.4-0.9-8.9-1.5-13.1-3.2c-6.5-2.6-12.8-7.5-19.5-5.7"/>
		<path class="st19" d="M351.3,288.9l-31.1-11.8l-0.4-0.1c0,0,0.1-0.8,0.2-2c0.2-2.5,0.3-6.6-0.8-7.9c-1.7-2-6.7-0.3-11.4-2.6
			c-4.8-2.2-13.6,1.7-13.6,1.7s-6.4-1.1-9.2,3.5c-1.4,3.7-0.9,9.2-0.9,9.2s-0.2,0.1-0.6,0.2c-3.7,1.3-23.8,8.9-28.1,12
			c-4.7,3.4-9.9,37.5-11.6,47.6c-1.6,10-4.6,19.1-3.2,22.5c1.5,3.5,23.2,20.1,35.6,24.4c12.4,4.3,56.6,3.1,56.6,3.1s0.7-0.2,2-0.6
			c7.5-2.4,33.9-12.3,48-35.6C382.8,352.6,369.2,308,351.3,288.9z M267.5,346.4c-2.3,1.6-1,7.9-1,7.9l-3.9-3.4l9.7-24l4.2,18.4
			C276.4,345.3,269.7,344.8,267.5,346.4z M345.5,361.7c-1,0.5,3.1-11,1.1-13.6c-1.9-2.7-7.9-2.4-7.9-2.4l0.5-3.2
			c0.1-0.3,3.5-18,3.5-18l1.1-1.4c0,0,12.1,20.7,14.2,28C358.1,351.1,345,361.7,345.5,361.7z"/>
		<path class="st22" d="M292.7,214.1l-16,17c0,0-2.3,1.9-1.3,6.9s3,9.2,4.5,9.5s3.7,0.3,3.7,0.3s3.5,7.5,5.8,10.4
			c0,0,0.8,11.5,0.4,14.7c0,0,5.7,5,11.2,5.6s13.8-7.7,13.8-7.7l2-10.1c0,0,4.9-7.5,5.2-9.4c0.3-1.9,2.6-1.4,3.7-2.5
			s3.7-5.3,4.1-9.5c0.4-4.1,0.4-8.9-4.4-7.5c-4.2-1.1-1.5-9.9-1.5-9.9l-7.3-6.5L292.7,214.1z"/>
		<path class="st6" d="M320.3,277c-0.2,0.6-0.5,1.2-0.8,1.8c-2.7,5-14.1,14.5-14.1,14.5l-3.5-10.7l-1.9,10.7
			c-3.9-1.6-15.6-11.8-15.6-11.8s-0.4-0.9-0.9-2.5c0.4-0.1,0.6-0.2,0.6-0.2s-0.5-5.5,0.9-9.2c2.8-4.6,9.2-3.5,9.2-3.5
			s8.8-3.9,13.6-1.7c4.8,2.2,9.7,0.5,11.4,2.6c1.7,2,0.7,9.9,0.7,9.9L320.3,277z"/>
		<path class="st23" d="M351.3,288.9l-31.1-11.8l-0.4-0.1c0,0,0.1-0.8,0.2-2l-0.6,4l-4.6,6.3c0,0,7.8,2.8,14.3,6.4
			c4.6,2.5,7.2,7.4,6.6,12.5L330,353l-2.4,27.8l7.1,7.4c7.5-2.4,33.9-12.3,48-35.6C382.8,352.6,369.2,308,351.3,288.9z M345.5,361.7
			c-1,0.5,3.1-11,1.1-13.6c-1.9-2.7-7.9-2.4-7.9-2.4l0.5-3.2c0.1-0.3,3.5-18,3.5-18l1.1-1.4c0,0,12.1,20.7,14.2,28
			C358.1,351.1,345,361.7,345.5,361.7z"/>
		<path class="st23" d="M278.5,348l-4.8-16.1c0,0-8.6-29.5-14.6-36.8l1.5,20.8c0,0-5.1,24.8-9.8,32.2c-4.7,7.4-5.7,9.2,0,9.2
			c5.7,0,19.7,11.1,19.7,11.1l-1-9.2L278.5,348z M266.3,354.3l-3.9-3.4l9.7-24l4.2,18.4c0,0-6.7-0.5-8.9,1.1
			C265.1,348,266.3,354.3,266.3,354.3z"/>
		<path class="st21" d="M289.4,258.2c0,0,0.9,8.7,0,12.7"/>
		<path class="st21" d="M315.6,269.6c0,0,0-4.2,0.9-8.3"/>
		<path class="st21" d="M318,220.5c0,0,5.2,6.7,5,11.6c-0.3,5-0.7,11-0.5,16.7c0.1,5.8-9.3,17.9-14.1,19.1c-4.8,1.1-9,1.3-12.2-1.7
			c-3.1-3.1-6.3-7.4-10.2-12.9c-4.1-5.5-3.1-17.6-3.1-17.6"/>
		<path class="st21" d="M305.3,240.1c-0.3,1.8-0.4,3.7-0.4,5.5c0,1.5,0.3,3.2,1.3,4.3c0.6,0.6,1.4,1,1.5,1.8
			c0.1,0.7-0.4,1.4-1.1,1.7c-0.6,0.4-1.3,0.6-1.9,1.1"/>
		<path class="st21" d="M297,255.4c0,0,0.6,3.9,5.8,4.7"/>
		<ellipse class="st8" cx="296.4" cy="243.1" rx="1.1" ry="2"/>
		<ellipse class="st8" cx="312.1" cy="243.6" rx="1.1" ry="2"/>
		<path class="st24" d="M310,238.7c0,0,5.1-5.1,9.4,0.6"/>
		<path class="st24" d="M299.3,238.8c0,0-3.3-3.6-8.3,0"/>
		<path class="st8" d="M289.8,262.9c0,0,3.1,8.6,10.1,11.1c7,2.5,16.3-10.2,16.3-10.2l-0.5-1.6c0,0-6,7.9-12.8,6.6
			c-6.8-1.3-13.4-10.5-13.4-10.5L289.8,262.9z"/>
		<path class="st21" d="M283.6,247.4c0,0-4.2,1.4-5.2-1.7c-1.1-3.3-4.9-11.8-1.5-14.7c3.3-2.9,5.9,3.8,5.9,3.8"/>
		<path class="st21" d="M322.4,249.2c0,0,3.9,0.8,5-2.5c1.1-3.3,4.9-11.8,1.5-14.7c-3.3-2.9-5.9,3.8-5.9,3.8"/>
		<path class="st8" d="M282.6,243.1c1.1-0.1,3.1-1.1,3.7-2.2s0.8-2.2,1-3.3c0.4-2.2,0.6-4.4,0.6-6.6c0-0.8,0-1.7,0.2-2.6
			c0.3-0.8,0.8-1.6,1.4-2.3c1.4-1.7,3.2-3.2,4.6-4.9c1.3-1.7,2.4-4,2-6.1c0,0,9.4,8.6,23.1,5.9c7.3-1.4,14.3-7.9,13.5-15.9
			c-0.3-2.9-2.5-4.9-5.1-5.6c-3.6-0.9-6.9,1-10.1,2.3c-5.9,2.3-11.8-1.6-17.8-2.3c-5.1-0.5-11.5,0.1-14.1,5.2c0,0-9.3,1.1-13.3,8.7
			c-4.1,7.6,3.7,18.1,3.7,18.1s3.1-3.8,7.1,3.9L282.6,243.1z"/>
		<path class="st8" d="M318.6,218.6c0,0-2.4,12.5,3.9,18.6c0,0,1.3-3.8,2.8-4.7c0,0,3.5-6.6-1.1-13.8
			C319.5,211.3,318.6,218.6,318.6,218.6z"/>
		<path class="st25" d="M330,204.3c-0.9,3.5-3.8,6.1-7.2,7.5c-8.7,3.6-17.1-0.4-25.8-1.1c-7.1-0.6-15,5.7-15.5,13.1"/>
		<path class="st25" d="M276.2,221.8c0.1-5.7,3.9-11.3,9.2-13.4"/>
		<path class="st21" d="M287.4,269.6c0,0,5.7,6.4,13.5,9.2c0,0,10.5-3,15.7-10.2"/>
		<circle class="st21" cx="294.1" cy="243.1" r="9.2"/>
		<circle class="st21" cx="314.7" cy="243.1" r="9.2"/>
		<path class="st21" d="M289.4,266.3c0,0-2.8,0.6-4.4,3.5c-1.6,2.9-0.6,11.9-0.6,11.9s8.4,8.3,15.6,11.8l2.2-11.9l3.3,11.9
			c0,0,11.1-7.9,14.1-14.5c0,0,1-7.7,0-10.2s-3.3-2.5-3.3-2.5"/>
		<path class="st21" d="M276.2,345.7c0,0-3.3-22-7.7-31.1"/>
		<path class="st21" d="M259.1,295.2c0,0,4.2,5.8,6.8,11.4"/>
		<path class="st21" d="M345.5,311.6c1.1-4.4,2.4-8.2,3.6-10.8"/>
		<path class="st21" d="M338.7,345.7c0,0,2.4-15.1,5.2-27.6"/>
		<path class="st21" d="M342.7,324.5c2.3-3,5.5-5.2,9.1-6.3"/>
		<path class="st21" d="M319.9,276.9c0,0,19.1,7.6,31.5,12c0,0,15.2,14.2,31.5,63.7c0,0-14.9,25.1-43.3,33.1"/>
		<path class="st21" d="M344.5,362.5l13.7-11.5c0,0,7.3-5.5,14.8-1.7"/>
		<path class="st21" d="M343.9,323.1c0,0,11.4,16.7,14.2,28"/>
		<path class="st21" d="M266.6,354.9l-4-3.8c0,0-5.9-1-12.7,3.5"/>
		<path class="st21" d="M262.5,351.1c0,0,5-16.4,9.8-24.8"/>
		<path class="st21" d="M284,278.9c0,0-27.5,10.4-30.1,13.3c-2.7,3-12.9,60.7-13.2,67.2c-0.2,5.9,21.1,19.2,31.8,24.7"/>
		<path class="st7" d="M383.5,269.6h-31.4c-3.7,0-6.7-3-6.7-6.7v-18.3c0-3.7,3-6.7,6.7-6.7h31.4c3.7,0,6.7,3,6.7,6.7V263
			C390.2,266.7,387.2,269.6,383.5,269.6z"/>
		<polyline class="st21" points="359.9,247.4 351.3,252.8 359.3,259.9 		"/>
		<polyline class="st21" points="375.6,260.4 383.3,253.9 374.4,248 		"/>
		<line class="st21" x1="364.1" y1="264.5" x2="370.5" y2="244.6"/>
		<circle class="st8" cx="302.7" cy="298.4" r="1.8"/>
		<g>
			<path class="st8" d="M336.4,395h-62.5c-0.8,0-1.4-0.6-1.4-1.4l0,0c0-0.8,0.6-1.4,1.4-1.4h62.5c0.8,0,1.4,0.6,1.4,1.4l0,0
				C337.9,394.3,337.2,395,336.4,395z"/>
			<path class="st7" d="M338.6,390.1l8.4-39.4c0.5-2.6-1.4-5-4.1-5h-73.1c-2.7,0-4.6,2.5-4.1,5l7.5,38c0.4,1.9,2,3.3,4,3.4l57.2,1.3
				C336.4,393.5,338.1,392.1,338.6,390.1z"/>
			<circle class="st8" cx="306" cy="368.3" r="5.8"/>
			<line class="st21" x1="323.3" y1="349.4" x2="332" y2="349.4"/>
			<line class="st21" x1="281.9" y1="349.4" x2="314.8" y2="349.4"/>
		</g>
		<path class="st8" d="M338.7,431.9l-6.7,17.5c0,0-17-4.3-38.7-8.7c-22.8-4.7-46.5-10.7-58.8-32.3c-1.5-2.7-2.5-5.7-1.8-8.7
			c1.7-7.5,11.5-9.5,17.9-10.2c4-0.5,8.1-0.6,12.1-0.7c2,0,8.9-1.1,10.6,0.1c0,0,4.3,3.2,7.9,4.7c3.6,1.5,56.8-1.4,56.8-1.4
			s1.5-3.4,1.6-6.4c8.3-4.2,27.7-7.8,35.9-6.3c12.8,2.5,20.3,9.9,19,17.8C392.8,405.1,364.5,426.2,338.7,431.9z"/>
		<path class="st26" d="M338.7,431.9c0,0-16.2-4.3-29.3-13.2c-13.2-8.9-23.5-19.3-41.9-17.1"/>
		<path class="st26" d="M306.3,416.5c8.3-2.4,14.5-7.8,21.1-13c7.1-5.5,14.6-10.8,22.7-14.9"/>
		<line class="st21" x1="303.4" y1="244.6" x2="305.8" y2="244.6"/>
	</g>
</g>
</svg>
